mtllib tetrahedron.mtl
# vertices
v 20 24 16
v 4 8 -0
v 20 8 32
v 36 8 -0

# texture coordinates
vt 0 1
vt -0.5 0.5
vt 0.5 0.5
vt 0 -0.5
vt 0 0.5
vt 0.5 1
vt 1 0.5

# normals
vn -0.8164965809277261 0.4082482904638631 0.4082482904638631
vn 0 -1 -0
vn -0 0.7071067811865475 -0.7071067811865475
vn 0.8164965809277261 0.4082482904638631 0.4082482904638631

o entity0_brush0
usemtl __TB_empty
f  1/1/1  2/2/1  3/3/1
usemtl __TB_empty
f  3/4/2  2/3/2  4/2/2
usemtl __TB_empty
f  4/2/3  2/3/3  1/1/3
usemtl __TB_empty
f  4/5/4  1/6/4  3/7/4

